<svg xmlns="http://www.w3.org/2000/svg" viewBox="0 0 93.85 105.79"><defs><style>.cls-1{fill:#00aae6;}</style></defs><g id="Capa_2" data-name="Capa 2"><g id="Capa_1-2" data-name="Capa 1"><path class="cls-1" d="M56.73,77.62a1.74,1.74,0,0,1,2,.52l18.13,23c3.62,4.58,9.24,6.23,13.3,3l.7-.55c4.06-3.21,3.76-9.06.14-13.64l-18.17-23a1.71,1.71,0,0,1,0-2,39.85,39.85,0,0,0-.34-49.43A40.65,40.65,0,1,0,8.73,65.82,39.85,39.85,0,0,0,56.73,77.62ZM17.06,59.24a30,30,0,1,1,42.18,5A30.06,30.06,0,0,1,17.06,59.24Z"/><path class="cls-1" d="M55.89,37.41A18,18,0,0,0,33.55,25.15a4.19,4.19,0,0,1-2.35-8,26.44,26.44,0,0,1,32.74,18,4.2,4.2,0,0,1-2.85,5.2,4.29,4.29,0,0,1-1.66.14A4.18,4.18,0,0,1,55.89,37.41Z"/></g></g></svg>