<svg xmlns="http://www.w3.org/2000/svg" viewBox="0 0 333.476 95.595"><defs><style>.cls-1{fill:#5cc1f1;}.cls-2{fill:#2d587f;}.cls-3{fill:#3c668b;}.cls-4{fill:#48c0ef;}.cls-5{fill:#fff;}</style></defs><g id="Capa_2" data-name="Capa 2"><g id="Capacitaci&#xF3;n"><polygon class="cls-1" points="62.255 56.327 73.8 58.15 78.61 68.924 80.374 47.708 62.255 56.327"></polygon><path class="cls-2" d="M79.091,69.974l-6.574-.829-2.245-6.3-6.9.167-2.223-6.224a21.092,21.092,0,0,1-17,10.048c-10.542.335-18.395-7.079-20.506-17.248A24.65,24.65,0,0,1,31.372,26.18c5.937-5.215,13.751-5.023,20.728-1.9L67.065,6.712c-.009.011-5.08-2.626-5.39-2.759A49.15,49.15,0,0,0,47.339.213C32.8-1.266,15.942,5,7.69,17.925A50.327,50.327,0,0,0,0,44.714,47.579,47.579,0,0,0,7.437,70.838a39.576,39.576,0,0,0,23.64,16.6A47.779,47.779,0,0,0,59.96,85.5,34.813,34.813,0,0,0,75.58,74.083Z"></path><path class="cls-3" d="M82.512,46l-.821-.558a.782.782,0,0,1-.211-1.057l2.7-4.249a.725.725,0,0,1,1.022-.218l.821.558a.781.781,0,0,1,.211,1.057l-2.7,4.249A.725.725,0,0,1,82.512,46Z"></path><path class="cls-3" d="M82.911,49l-.035-1.015a.755.755,0,0,1,.711-.79l4.918-.184a.752.752,0,0,1,.764.735l.035,1.015a.755.755,0,0,1-.71.79l-4.918.184A.752.752,0,0,1,82.911,49Z"></path><path class="cls-3" d="M76.661,41.288l.826-.549a.727.727,0,0,1,1.021.229l2.144,3.447a.783.783,0,0,1-.222,1.055l-.826.549a.727.727,0,0,1-1.021-.229l-2.144-3.448A.781.781,0,0,1,76.661,41.288Z"></path><path class="cls-1" d="M55.093,25.884,69.363,8.812l7.323,7.017s2.191,1.989,0,4.751L65.355,32.072s-1.283,1.6-3.742,0Z"></path><polygon class="cls-4" points="79.591 95.595 320.192 95.595 330.833 70.199 91.835 70.199 79.591 95.595"></polygon><path class="cls-5" d="M102.919,88.869a3.916,3.916,0,0,1-3.213-1.591v4.574H96.781V78.009h2.925v1.532a3.753,3.753,0,0,1,3.213-1.73c2.405,0,4.7,1.949,4.7,5.509v.039C107.614,86.92,105.363,88.869,102.919,88.869Zm1.77-5.549a2.543,2.543,0,1,0-5.022,0v.039a2.543,2.543,0,1,0,5.022,0Z"></path><path class="cls-5" d="M117.409,80.973c-1.944,0-3.137,1.213-3.137,3.759V88.67h-2.925V78.009h2.925v2.148a3.192,3.192,0,0,1,3.291-2.346v3.162Z"></path><path class="cls-5" d="M130.261,84.393h-7.177a2.411,2.411,0,0,0,2.52,2.089,3.325,3.325,0,0,0,2.5-1.094l1.673,1.532a5.091,5.091,0,0,1-4.212,1.989,5.245,5.245,0,0,1-5.388-5.509v-.041c0-3.043,2.1-5.548,5.1-5.548,3.445,0,5.022,2.764,5.022,5.787v.04C130.3,83.936,130.281,84.115,130.261,84.393Zm-4.984-4.156c-1.211,0-2,.9-2.231,2.267h4.406C127.279,81.152,126.509,80.237,125.277,80.237Z"></path><path class="cls-5" d="M137.67,88.869a7.084,7.084,0,0,1-4.426-1.611l1.252-1.989a5.718,5.718,0,0,0,3.251,1.273c.847,0,1.231-.318,1.231-.8v-.039c0-.657-1-.876-2.134-1.234-1.444-.437-3.08-1.134-3.08-3.2v-.04c0-2.167,1.694-3.381,3.771-3.381a6.969,6.969,0,0,1,3.848,1.234l-1.115,2.088a5.979,5.979,0,0,0-2.791-.995c-.711,0-1.077.319-1.077.736v.04c0,.6.982.875,2.1,1.273,1.443.5,3.118,1.213,3.118,3.162v.04C141.615,87.8,139.9,88.869,137.67,88.869Z"></path><path class="cls-5" d="M154.871,84.393H147.7a2.411,2.411,0,0,0,2.52,2.089,3.325,3.325,0,0,0,2.5-1.094l1.673,1.532a5.091,5.091,0,0,1-4.213,1.989,5.245,5.245,0,0,1-5.388-5.509v-.041c0-3.043,2.1-5.548,5.1-5.548,3.445,0,5.022,2.764,5.022,5.787v.04C154.91,83.936,154.891,84.115,154.871,84.393Zm-4.983-4.156c-1.211,0-2,.9-2.231,2.267h4.406C151.89,81.152,151.119,80.237,149.888,80.237Z"></path><path class="cls-5" d="M165.186,88.67V82.723c0-1.432-.654-2.168-1.77-2.168s-1.828.736-1.828,2.168V88.67h-2.925V78.009h2.925v1.512a3.626,3.626,0,0,1,3.021-1.71c2.213,0,3.5,1.511,3.5,3.958v6.9Z"></path><path class="cls-5" d="M177.1,88.909a5.356,5.356,0,0,1-5.368-5.509v-.041a5.385,5.385,0,0,1,5.407-5.548,5,5,0,0,1,4.117,1.789l-1.789,1.989a2.979,2.979,0,0,0-2.347-1.173,2.692,2.692,0,0,0-2.5,2.9v.039a2.7,2.7,0,0,0,2.617,2.944,3.218,3.218,0,0,0,2.366-1.134l1.713,1.79A5.127,5.127,0,0,1,177.1,88.909Z"></path><path class="cls-5" d="M184.852,76.836V74.151h3.078v2.685Zm.077,11.834V78.009h2.925V88.67Z"></path><path class="cls-5" d="M198.224,88.67V87.516a3.905,3.905,0,0,1-3.117,1.353,3.232,3.232,0,0,1-3.54-3.262v-.04c0-2.327,1.712-3.4,4.157-3.4a7.108,7.108,0,0,1,2.52.438v-.179c0-1.253-.75-1.949-2.214-1.949a7.369,7.369,0,0,0-2.847.577l-.732-2.308a8.863,8.863,0,0,1,4-.855c3.194,0,4.6,1.71,4.6,4.594V88.67Zm.058-4.3a4.4,4.4,0,0,0-1.866-.4c-1.251,0-2.02.517-2.02,1.472v.04c0,.815.654,1.293,1.6,1.293,1.365,0,2.289-.776,2.289-1.87Z"></path><path class="cls-5" d="M205.287,88.67V74.151h2.925V88.67Z"></path><path class="cls-5" d="M225.741,88.928c-.789,2.169-1.636,2.984-3.387,2.984a4.726,4.726,0,0,1-2.6-.736l.981-2.188a2.589,2.589,0,0,0,1.251.418.977.977,0,0,0,1.02-.7l-4.041-10.7h3.1l2.347,7.26,2.251-7.26h3.041Z"></path><path class="cls-5" d="M246.156,88.75H243.5l-4.06-10.741h3.1l2.308,7.141,2.329-7.141h3.039Z"></path><path class="cls-5" d="M253.545,76.836V74.151h3.078v2.685Zm.076,11.834V78.009h2.925V88.67Z"></path><path class="cls-5" d="M266.938,80.973c-1.945,0-3.137,1.213-3.137,3.759V88.67h-2.925V78.009H263.8v2.148a3.191,3.191,0,0,1,3.291-2.346v3.162Z"></path><path class="cls-5" d="M273.978,88.849c-1.789,0-3-.736-3-3.2V80.6h-1.231V78.009h1.231V75.284H273.9v2.725h2.424V80.6H273.9V85.15c0,.7.288,1.034.943,1.034a2.9,2.9,0,0,0,1.443-.378v2.426A4.206,4.206,0,0,1,273.978,88.849Z"></path><path class="cls-5" d="M286.505,88.67V87.158a3.624,3.624,0,0,1-3.021,1.711c-2.213,0-3.5-1.511-3.5-3.958v-6.9h2.925v5.947c0,1.432.654,2.168,1.77,2.168s1.828-.736,1.828-2.168V78.009h2.924V88.67Z"></path><path class="cls-5" d="M299.665,88.67V87.516a3.905,3.905,0,0,1-3.117,1.353,3.232,3.232,0,0,1-3.54-3.262v-.04c0-2.327,1.712-3.4,4.156-3.4a7.11,7.11,0,0,1,2.521.438v-.179c0-1.253-.751-1.949-2.214-1.949a7.369,7.369,0,0,0-2.847.577l-.732-2.308a8.863,8.863,0,0,1,4-.855c3.194,0,4.6,1.71,4.6,4.594V88.67Zm.057-4.3a4.394,4.394,0,0,0-1.866-.4c-1.25,0-2.019.517-2.019,1.472v.04c0,.815.653,1.293,1.6,1.293,1.365,0,2.288-.776,2.288-1.87Z"></path><path class="cls-5" d="M306.728,88.67V74.151h2.925V88.67Z"></path><path class="cls-2" d="M97.179,38.246h6.958l11.089,27.117h-7.74l-1.9-4.808H95.541l-1.859,4.808H86.09Zm6.324,16.5-2.9-7.654-2.939,7.654Z"></path><path class="cls-2" d="M115.962,38.439h11.164c6.585,0,10.826,3.5,10.826,9.462v.076c0,6.346-4.725,9.693-11.2,9.693H123.18v7.693h-7.218Zm10.643,13.385c2.566,0,4.129-1.385,4.129-3.5v-.077c0-2.307-1.563-3.538-4.166-3.538H123.18v7.116Z"></path><path class="cls-2" d="M145.614,38.246h6.958l11.089,27.117h-7.74l-1.9-4.808H143.975l-1.859,4.808h-7.591Zm6.324,16.5-2.9-7.654L146.1,54.747Z"></path><path class="cls-2" d="M161.829,51.978V51.9a13.607,13.607,0,0,1,13.73-14,12.627,12.627,0,0,1,11.051,5.615l-5.432,4.347c-1.488-1.923-3.2-3.154-5.692-3.154-3.648,0-6.216,3.193-6.216,7.116V51.9c0,4.038,2.568,7.192,6.216,7.192,2.716,0,4.315-1.308,5.878-3.269l5.434,4A13.024,13.024,0,0,1,175.263,65.9C167.82,65.9,161.829,60.017,161.829,51.978Z"></path><path class="cls-2" d="M188.241,38.439H195.5V65.363h-7.256Z"></path><path class="cls-2" d="M204.835,44.977H197.02V38.439h22.847v6.538h-7.814V65.363h-7.218Z"></path><path class="cls-2" d="M226.9,38.246h6.958l11.089,27.117H237.2l-1.9-4.808H225.259L223.4,65.363h-7.591Zm6.326,16.5-2.9-7.654-2.938,7.654Z"></path><path class="cls-2" d="M243.11,51.978V51.9a13.607,13.607,0,0,1,13.73-14,12.627,12.627,0,0,1,11.051,5.615l-5.432,4.347c-1.488-1.923-3.2-3.154-5.692-3.154-3.648,0-6.216,3.193-6.216,7.116V51.9c0,4.038,2.568,7.192,6.216,7.192,2.716,0,4.315-1.308,5.878-3.269l5.434,4A13.024,13.024,0,0,1,256.544,65.9C249.1,65.9,243.11,60.017,243.11,51.978Z"></path><path class="cls-2" d="M269.522,38.439h7.258V65.363h-7.258Z"></path><path class="cls-2" d="M278.86,51.978V51.9a14.028,14.028,0,0,1,28.056-.077V51.9a14.028,14.028,0,0,1-28.056.077Zm20.687,0V51.9c0-3.885-2.716-7.27-6.7-7.27-3.943,0-6.586,3.308-6.586,7.193V51.9c0,3.884,2.715,7.269,6.661,7.269C296.907,59.17,299.547,55.863,299.547,51.978Zm-5.321-22.463,6.587,2.193-5.47,4.923h-4.986Z"></path><path class="cls-2" d="M308.88,38.439h6.735L326.33,52.67V38.439h7.146V65.363H327.15l-11.125-14.77v14.77H308.88Z"></path></g></g></svg>