<svg xmlns="http://www.w3.org/2000/svg" viewBox="0 0 98.96 106.48"><defs><style>.cls-1{fill:#00aae6;}</style></defs><g id="Capa_2" data-name="Capa 2"><g id="Capa_1-2" data-name="Capa 1"><path class="cls-1" d="M33.62,2.32V68.9H48.08a2.37,2.37,0,0,1,2.37,2.37v18a2.32,2.32,0,0,0,2.3,2.32l43.87.32A2.32,2.32,0,0,0,99,89.62V2.32A2.32,2.32,0,0,0,96.63,0H36A2.32,2.32,0,0,0,33.62,2.32ZM94.76,80.41H57.92v-3.5H94.76Zm0-17.77H37.19v-3.5H94.76Zm0-9.39H37.19v-3.5H94.76Zm0-10.38H37.19v-3.5H94.76Zm0-10H37.19v-3.5H94.76Zm0-10H37.19v-3.5H94.76Zm0-9.7H37.19V9.64H94.76Z"/><path class="cls-1" d="M30.78,70.48V68a1.15,1.15,0,0,0-1.16-1.15h-12A1.15,1.15,0,0,0,16.5,68v2.51H14.27v-4.1a1.55,1.55,0,0,1,1.52-1.59H31.5A1.55,1.55,0,0,1,33,66.38v4.1Z"/><path class="cls-1" d="M5.73,93.47H17.66V94a1.89,1.89,0,0,0,1.89,1.89h8.82A1.89,1.89,0,0,0,30.26,94v-.56H42.61a7,7,0,0,0,5.74-3v10.89a5.09,5.09,0,0,1-5.09,5.09H5.09A5.09,5.09,0,0,1,0,101.39V90.5A7,7,0,0,0,5.73,93.47Z"/><path class="cls-1" d="M48.35,74.58V86.76a5.09,5.09,0,0,1-5.1,5.09h-13v-2A1.89,1.89,0,0,0,28.37,88H19.55a1.89,1.89,0,0,0-1.89,1.89v2H5.09A5.09,5.09,0,0,1,0,86.76V74.58A2.88,2.88,0,0,1,2.88,71.7H45.46A2.89,2.89,0,0,1,48.35,74.58Z"/><rect class="cls-1" x="19.3" y="89.09" width="9.33" height="5.74" rx="1.39"/></g></g></svg>