<svg xmlns="http://www.w3.org/2000/svg" viewBox="0 0 284.25 64.25"><defs><style>.cls-1{fill:#eb69a2;}.cls-2{fill:#00abe6;}.cls-3{fill:#00ada4;}.cls-4{fill:#14649b;}.cls-4,.cls-9{fill-rule:evenodd;}.cls-5,.cls-9{fill:#dddb00;}.cls-6{fill:#f4a16c;}.cls-7{fill:#e53212;}.cls-8{fill:#ffe500;}</style></defs><g id="Capa_2" data-name="Capa 2"><g id="Capa_1-2" data-name="Capa 1"><path class="cls-1" d="M6.5,22.36c-.78-3.24-.57-5.29.25-6.47s2.74-.2,2.8,1.62a18.8,18.8,0,0,1-.36,4.62c-.25.78-.38,1.15-.43,1.41l0,.27s.47.14.52.48-.31.82-.08,1,.77.63.31,1-.74,1-1.52.77-1.83.05-2-1.57a3.16,3.16,0,0,1,.33-2.09c.08-.43.2-1.12.2-1.12"></path><path class="cls-1" d="M14.57,15.63a12.29,12.29,0,0,0-1,3.51,24.18,24.18,0,0,1-.29,2.76c-.15.8-.35,1-.35,1s-.12-.19-.41.15-.62.66-.53,1.06.25.48,0,.77-.33.88,0,1,1.49.27,1.73.82.56.82.93.61a4.94,4.94,0,0,0,.94-.6,3.07,3.07,0,0,0,.71-2.07,6.76,6.76,0,0,1-.17-2.07c.13-.7,1-1.41,1.26-2.37s.31-2,.78-2.44,1.3-3.18-.7-4-2.94,1.89-2.94,1.89"></path><path class="cls-2" d="M43.2,54.54c3.32-.25,5.21-1.07,6.07-2.22s-.63-2.67-2.39-2.16a18.21,18.21,0,0,0-4.29,1.75,13.92,13.92,0,0,1-1.21.84l-.24.12s-.28-.4-.62-.34-.68.56-1,.39-.85-.53-1.1,0-.74,1-.26,1.67.51,1.76,2.1,1.4a3.13,3.13,0,0,0,1.89-1l1-.53"></path><path class="cls-2" d="M47.13,44.79a12.31,12.31,0,0,1-3,2,22.58,22.58,0,0,0-2.54,1.12c-.72.38-.83.63-.83.63s.22.07,0,.43-.44.8-.85.83-.54-.08-.75.22-.73.58-.93.31S37.46,49,36.88,49s-1-.28-.88-.7a5.44,5.44,0,0,1,.29-1.07A3.07,3.07,0,0,1,38,45.86a6.63,6.63,0,0,0,2-.47c.62-.33,1-1.41,1.86-1.92S43.71,42.57,44,42s2.63-2.22,4-.56-.89,3.37-.89,3.37"></path><path class="cls-3" d="M198.17,56.07l-4.43.12-.05-2A6.61,6.61,0,0,1,191.74,56a5.35,5.35,0,0,1-2.46.59,4,4,0,0,1-3.1-1.1A5,5,0,0,1,185,51.92L184.76,44l4.77-.12.18,6.8a2.5,2.5,0,0,0,.47,1.64,1.49,1.49,0,0,0,1.23.46,1.72,1.72,0,0,0,1.37-.68,3.84,3.84,0,0,0,.49-2.36l-.16-6,4.75-.12Z"></path><path class="cls-1" d="M2.75,28.08c.43-.68.8-1.31.8-1.31s-.23.56,0-.1a6.84,6.84,0,0,0,.17-1.43,1.93,1.93,0,0,0,.14-.92c-.08-.2-.26-.23-.36-.37s-.13-.12-.07-.41a8.75,8.75,0,0,0,0-1.77,1.63,1.63,0,0,0-2.26-1C-.23,21.41,0,23.47,0,24.16s.28,2.09.2,2.42a1,1,0,0,0,.28,1c.23.2.83.64.81.91s.12.51-.05.93-.41,1-.2,1.37a9.06,9.06,0,0,0,.87.92c.12.18.21.2.21.2A2.22,2.22,0,0,0,1.51,33a10.26,10.26,0,0,1-.09,1.09c-.06.37-.38.92-.29,1.27s.12.85.39.9.17,0,.35.22l.3.45A10.1,10.1,0,0,0,2,39.06,5.17,5.17,0,0,0,2.79,42a4.25,4.25,0,0,0,2.07,1.93c.78.26.19-.13,1.21.61a6.76,6.76,0,0,0,2.14,1.28,26.27,26.27,0,0,0,2.77.5,19.69,19.69,0,0,1,2.4.17c1.5.21,2,0,2.19-.26s-.14-.13.72-.31a2.8,2.8,0,0,0,1.76-1.17c.23-.39.06-.31.32-.54s.46-.41.73-.69.46-.42.67-.65a7.09,7.09,0,0,0,1.06-1.29c.19-.41-.18-.48.24-.68a1.36,1.36,0,0,0,.72-.58c.09-.21.14-1.08.43-1.19s.58-.44,1-.59a2.24,2.24,0,0,0,.91-.77c.15-.2.41-.42.89-.94A2.83,2.83,0,0,0,25.6,36s.3.11,1-.91,1.47-2.87.59-3.53a2.73,2.73,0,0,0-3.33.1,7,7,0,0,0-2.3,2.94,2,2,0,0,1-.45,1l-.26.22s.15-.25-.25-.48l-.39-.24a19.79,19.79,0,0,0,.22-2.38,1.73,1.73,0,0,0-.56-1.21s.23,0,.2-.79-.21-.92-.21-.92A4.7,4.7,0,0,0,21.22,29c.16-.3.49-1.78.83-2.77s.47-1.95.64-2.25,1.42-2.6,1.27-3.62-1.64-1.24-2.61-.15a17.05,17.05,0,0,0-1.82,2.36,4.64,4.64,0,0,0-.68,1.32,4.13,4.13,0,0,1-.62,1.26,9,9,0,0,0-.68,1,2.16,2.16,0,0,0-.35,1.59,4.83,4.83,0,0,0-1.1.34.66.66,0,0,0-.3.39,19.79,19.79,0,0,1-2.26-.53,5.2,5.2,0,0,0-1.21-.33c-1.06-.25-.72-.3-1.55-.28s-.49,0-1,.15-.08-.13-.75.19-.77.91-1,1.08-.41.09-.78.3a1.46,1.46,0,0,0-.53.51s-.3-.17-1.31.25a5.05,5.05,0,0,0-1.69,1.07l-.26.23a3,3,0,0,1,0-1.15c.12-1,.18-1.29-.06-1.45s-.71-.38-.71-.38"></path><path class="cls-2" d="M38.9,59.86c.52-.61,1-1.15,1-1.15s-.47.38.1,0a7.25,7.25,0,0,1,1.31-.6,1.86,1.86,0,0,1,.83-.42c.22,0,.3.19.46.23s.15.09.42,0a7.9,7.9,0,0,1,1.68-.53,1.61,1.61,0,0,1,1.61,1.85c-.16,1.48-2.19,1.86-2.84,2.11s-2.09.37-2.36.55a1,1,0,0,1-1,0c-.27-.18-.87-.6-1.12-.49s-.52,0-.88.33-.84.69-1.23.6a9,9,0,0,1-1.15-.55c-.2,0-.24-.13-.24-.13a2.3,2.3,0,0,1-.91.93c-.55.23-.67.23-1,.41s-.76.66-1.12.66-.84.15-1-.08,0-.18-.33-.26l-.51-.16a10,10,0,0,1-2,.81,5.09,5.09,0,0,1-3,.14,4.34,4.34,0,0,1-2.47-1.38c-.48-.67.06-.22-.95-1a6.48,6.48,0,0,1-1.87-1.64,23.59,23.59,0,0,1-1.34-2.49,17.58,17.58,0,0,0-.89-2.22c-.66-1.36-.58-1.9-.42-2.17s.17.09.07-.78a2.87,2.87,0,0,1,.57-2c.3-.35.29-.15.42-.47a9.38,9.38,0,0,1,.44-.91c.18-.35.25-.57.41-.84a7.34,7.34,0,0,1,.9-1.41c.34-.3.51,0,.57-.43a1.31,1.31,0,0,1,.34-.86c.16-.15,1-.46,1-.78s.25-.68.26-1.12a2.12,2.12,0,0,1,.46-1.1c.13-.2.27-.53.61-1.14a3.31,3.31,0,0,1,.56-.79s-.2-.27.55-1.28,2.28-2.28,3.17-1.65a2.72,2.72,0,0,1,.93,3.2,6.86,6.86,0,0,1-2.1,3.1c-.36.25-.64.4-.77.72L26,45s.18-.22.53.08l.35.31a19.76,19.76,0,0,1,2.2-1,1.73,1.73,0,0,1,1.32.16s-.06-.22.69-.43,1-.07,1-.07a4.62,4.62,0,0,1,.36-1.49c.23-.26,1.55-1,2.38-1.65s1.72-1.05,1.95-1.3,2.05-2.15,3.06-2.32,1.68,1.19.94,2.44A16.21,16.21,0,0,1,39,42.2a4.78,4.78,0,0,1-1,1,3.73,3.73,0,0,0-1,1,8,8,0,0,1-.73.94,2.15,2.15,0,0,1-1.4.83,5.24,5.24,0,0,1,0,1.16.66.66,0,0,1-.28.39,19,19,0,0,0,1.2,2,4.92,4.92,0,0,1,.68,1.05c.57.93.51.59.75,1.38s.18.46.15,1,.14,0,0,.78-.62,1-.71,1.3,0,.41,0,.83a1.42,1.42,0,0,1-.32.66s.26.24.17,1.33A5.41,5.41,0,0,1,36,59.78l-.13.31a3.17,3.17,0,0,0,1.08-.39c.88-.42,1.17-.57,1.39-.39s.58.55.58.55"></path><path class="cls-4" d="M268.08,9.52l.8.11s1.26-.54,2.63-5.63c.57-2.11,3.11-3.57,3.11-3.57h7.93s-2,1.19-4.5,8.34c-1.18,3.32-6.42,5.5-6.42,5.5l-8.27.12,1.73-1.19-.8-.11s-2.16,1.51-2.52,1.73,10,0,10,0,6.2-1.84,7.81-7S283.43.21,284.25,0h-10.2s-2.52.34-3.79,5.2c0,0-1,3-1.49,3.35a2.32,2.32,0,0,0-.69,1"></path><path class="cls-4" d="M269.33,10.33s-18.74-3.19-20.1,9.35c0,0-.66,6.64,9.9,5.55a1.15,1.15,0,0,1,.33-1.87s-9.66.76-7.83-4.86,6.07-6.17,8.3-6.39a32.82,32.82,0,0,1,5,.21s4.59.33,4.36-2"></path><path class="cls-4" d="M275.18,13.62s-2.74,1.5-3.05,1.57-7,.06-7,.06-1.16.43.22.43,9.88.11,9.88.11,1.84-.1,1.95-1,0-1.2-1.15-1.3Z"></path><path class="cls-4" d="M269.65,16.53l-8.33-.06s-1.59-.16-1.8,1.27,1.87,1,1.87,1l8.39-.06s1.74.12,1.81-1.16a1,1,0,0,0-1.16-.91Z"></path><path class="cls-4" d="M261.26,19.93s-1.42-.3-1.61.8,1,1.15,1,1.15l6.2-.06s1.1-.18,1-1.16-1.87-.67-1.87-.67Z"></path><path class="cls-4" d="M261.06,23.4s-1-.37-1.22,1c-.13,1,.91.8,1.29.8h3.23s1.1-.25,1.16-.86-.2-1.16-1.36-1.09c-1.86.09-3.1.12-3.1.12"></path><path class="cls-5" d="M44.12,25l4.43-1a6.39,6.39,0,0,1-.33,2.71,5.74,5.74,0,0,1-1.51,2.24,8.36,8.36,0,0,1-3,1.67,11.82,11.82,0,0,1-3.21.76A5.73,5.73,0,0,1,38,31a6,6,0,0,1-2-1.32,6.73,6.73,0,0,1-1.49-2.58A6.83,6.83,0,0,1,34,23.86a5.6,5.6,0,0,1,.67-2,5.86,5.86,0,0,1,1.23-1.61,9.26,9.26,0,0,1,3.15-1.73A8.16,8.16,0,0,1,43.77,18a5.73,5.73,0,0,1,3.17,2.23l-4,2.07a2,2,0,0,0-1.11-.87,2.47,2.47,0,0,0-1.54.12,2.41,2.41,0,0,0-1.51,1.43A3.81,3.81,0,0,0,39,25.6a3.33,3.33,0,0,0,1.46,1.94,2.33,2.33,0,0,0,2,.12,2.51,2.51,0,0,0,1.32-1,2.88,2.88,0,0,0,.39-1.7"></path><path class="cls-6" d="M65,25l-4.36.83-.37-2A6.7,6.7,0,0,1,58.6,26a5.28,5.28,0,0,1-2.34,1A4,4,0,0,1,53,26.37,5,5,0,0,1,51.26,23l-1.48-7.75,4.69-.89,1.27,6.69a2.53,2.53,0,0,0,.74,1.55,1.5,1.5,0,0,0,1.28.25A1.71,1.71,0,0,0,59,22a3.83,3.83,0,0,0,.09-2.41L58,13.73l4.66-.89Z"></path><rect class="cls-7" x="67.55" y="7.7" width="4.76" height="17.09" transform="translate(-0.79 3.9) rotate(-3.18)"></rect><path class="cls-1" d="M82.35,7.75l-.22,4.71,2.61.12L84.58,16,82,15.92l-.2,4.39a2.42,2.42,0,0,0,.09,1.06.86.86,0,0,0,.8.43,5.18,5.18,0,0,0,1.49-.23l.19,3.29a15.46,15.46,0,0,1-3.31.23,5.79,5.79,0,0,1-2.59-.58,2.8,2.8,0,0,1-1.17-1.44,8.24,8.24,0,0,1-.26-3l.21-4.36-1.75-.08.17-3.46,1.75.08.1-2.27Z"></path><path class="cls-3" d="M99.26,27.45l-4.36-.79.36-2A6.51,6.51,0,0,1,93,26.05a5.3,5.3,0,0,1-2.53.08,4,4,0,0,1-2.81-1.71,5,5,0,0,1-.46-3.75l1.41-7.76,4.7.86-1.22,6.7a2.48,2.48,0,0,0,.13,1.71,1.51,1.51,0,0,0,1.1.69,1.71,1.71,0,0,0,1.49-.39,3.77,3.77,0,0,0,1-2.21l1.06-5.86,4.68.85Z"></path><path class="cls-2" d="M105.49,16.4l4.27,1.22-.56,2A4.74,4.74,0,0,1,111,18.2a2.85,2.85,0,0,1,1.76,0,5,5,0,0,1,2,1.26l-2.35,2.84a3.66,3.66,0,0,0-1.17-.7,1.63,1.63,0,0,0-1.61.34,7.84,7.84,0,0,0-1.83,3.69l-1.15,4-4.57-1.32Z"></path><path class="cls-8" d="M119.51,25l-4.11-2a5,5,0,0,1,1.34-1.5,4,4,0,0,1,1.7-.64,6,6,0,0,1,1.89.08,14.12,14.12,0,0,1,2.39.66A19.11,19.11,0,0,1,125.86,23a4.49,4.49,0,0,1,1.69,1.66,3.57,3.57,0,0,1,.39,1.73,5.59,5.59,0,0,1-.29,1.84l-1.87,5.15a6.87,6.87,0,0,0-.36,1.32,7,7,0,0,0,0,1.36l-4.18-1.52a4.11,4.11,0,0,1-.08-.8,4.71,4.71,0,0,1,.11-.8,6.28,6.28,0,0,1-2.18.58,8,8,0,0,1-2.92-.51,4.91,4.91,0,0,1-2.81-2.11,3.22,3.22,0,0,1-.22-2.77,3.28,3.28,0,0,1,1.56-1.91,5.69,5.69,0,0,1,3.33-.23q2.7.41,3.51.48c.55,0,1.14.05,1.78,0a1.7,1.7,0,0,0,.07-1.28,1.79,1.79,0,0,0-1.07-.76,3.38,3.38,0,0,0-1.78-.25,2,2,0,0,0-1,.79m3,3.74c-.7,0-1.41,0-2.13-.11a4.59,4.59,0,0,0-2,.09,1.22,1.22,0,0,0-.62,1.68,1.74,1.74,0,0,0,1,.73,3,3,0,0,0,1.52.13,2.41,2.41,0,0,0,1.23-.55,3.35,3.35,0,0,0,.76-1.26Z"></path><path class="cls-5" d="M154,29.2l-1.77,4.35,2.42,1-1.3,3.2-2.42-1-1.65,4.07a2.34,2.34,0,0,0-.25,1,.85.85,0,0,0,.6.68,5.37,5.37,0,0,0,1.48.27L150.21,46A15.94,15.94,0,0,1,147,45.1a5.61,5.61,0,0,1-2.25-1.41,2.76,2.76,0,0,1-.64-1.74A8.29,8.29,0,0,1,144.9,39L146.53,35l-1.61-.65,1.29-3.2,1.62.65.86-2.11Z"></path><path class="cls-6" d="M156.67,35.33,160.81,37l-.74,1.89a5,5,0,0,1,1.9-1.21,2.77,2.77,0,0,1,1.75.16,5,5,0,0,1,1.9,1.45L163,41.85A3.7,3.7,0,0,0,161.9,41a1.6,1.6,0,0,0-1.62.19,7.88,7.88,0,0,0-2.17,3.51L156.6,48.6l-4.44-1.74Z"></path><path class="cls-7" d="M166.51,39.15,171,40.81l-4.35,11.6-4.44-1.66Zm1.65-4.41,4.45,1.66-1.13,3L167,37.76Z"></path><path class="cls-1" d="M172.84,36.83l4.7.94-1.17,5.81a4.62,4.62,0,0,1,1.8-.77,5,5,0,0,1,2,0,4.83,4.83,0,0,1,3.35,2.33,6.67,6.67,0,0,1,.53,4.87,8.79,8.79,0,0,1-1.37,3.37,5.08,5.08,0,0,1-2.29,1.9,5.08,5.08,0,0,1-4.89-.76,6.08,6.08,0,0,1-1.36-1.88l-.36,1.8-4.35-.88Zm2.52,11.59a3.47,3.47,0,0,0,.13,2.39,1.86,1.86,0,0,0,1.34,1,1.78,1.78,0,0,0,1.54-.4,3.83,3.83,0,0,0,1-2.21,3.46,3.46,0,0,0-.12-2.23,1.78,1.78,0,0,0-1.22-.95,2,2,0,0,0-1.69.39,3.3,3.3,0,0,0-1,2"></path><path class="cls-2" d="M203.21,37.6l.95,4.61,2.56-.52.69,3.39-2.55.52.89,4.31a2.37,2.37,0,0,0,.35,1,.89.89,0,0,0,.88.23,5.18,5.18,0,0,0,1.38-.6l1,3.14a15.38,15.38,0,0,1-3.14,1,5.61,5.61,0,0,1-2.65.08,2.71,2.71,0,0,1-1.49-1.1,8.13,8.13,0,0,1-1-2.86l-.88-4.27-1.71.35-.7-3.39,1.71-.35L199,40.94Z"></path><path class="cls-8" d="M212.55,44l-4.41,1.14a5.11,5.11,0,0,1,0-2,4.09,4.09,0,0,1,.89-1.6,6.11,6.11,0,0,1,1.49-1.15,13.29,13.29,0,0,1,2.24-1,20.43,20.43,0,0,1,3.29-1,4.35,4.35,0,0,1,2.37.18,3.44,3.44,0,0,1,1.42,1.06,5,5,0,0,1,1,1.59l1.93,5.12a6.22,6.22,0,0,0,.58,1.25,6.61,6.61,0,0,0,.9,1l-4.17,1.56a4.21,4.21,0,0,1-.59-.55,6.62,6.62,0,0,1-.43-.68,6,6,0,0,1-1.28,1.84,7.69,7.69,0,0,1-2.56,1.52,4.9,4.9,0,0,1-3.51.22,3.25,3.25,0,0,1-2-2,3.3,3.3,0,0,1,0-2.47,5.51,5.51,0,0,1,2.38-2.34c1.54-1,2.53-1.6,3-1.92a15.76,15.76,0,0,0,1.37-1.12,1.65,1.65,0,0,0-.76-1,1.87,1.87,0,0,0-1.32.12,3.28,3.28,0,0,0-1.51,1,2.13,2.13,0,0,0-.3,1.29m4.73.89a20.82,20.82,0,0,1-1.69,1.29,4.65,4.65,0,0,0-1.45,1.36,1.16,1.16,0,0,0-.06,1,1.19,1.19,0,0,0,.68.71,1.64,1.64,0,0,0,1.2-.07,2.78,2.78,0,0,0,1.25-.88,2.26,2.26,0,0,0,.58-1.21,3.21,3.21,0,0,0-.24-1.45Z"></path><path class="cls-5" d="M220.39,36.42l3.91-2.09.95,1.78a5,5,0,0,1,.31-2.22,2.81,2.81,0,0,1,1.25-1.23,5.06,5.06,0,0,1,2.34-.51l.3,3.67a4.19,4.19,0,0,0-1.34.31,1.66,1.66,0,0,0-.91,1.37,7.86,7.86,0,0,0,1.27,3.92l2,3.66-4.2,2.25Z"></path><path class="cls-6" d="M226.33,27.75l4-2.58,1.75,2.71-4,2.58Zm2.56,3.95,4-2.58,6.72,10.39-4,2.58Z"></path><path class="cls-7" d="M240.37,28.65l-3.85,2.44a5.07,5.07,0,0,1-.58-1.93,4.18,4.18,0,0,1,.35-1.79,6.19,6.19,0,0,1,1.07-1.55,14.13,14.13,0,0,1,1.81-1.69A21.34,21.34,0,0,1,242,22.19a4.41,4.41,0,0,1,2.31-.55,3.51,3.51,0,0,1,1.68.57,5.5,5.5,0,0,1,1.41,1.22l3.39,4.29a6.78,6.78,0,0,0,.93,1,6,6,0,0,0,1.17.69l-3.49,2.76a4.61,4.61,0,0,1-.73-.35,5.26,5.26,0,0,1-.62-.51,6.05,6.05,0,0,1-.65,2.15,7.37,7.37,0,0,1-2,2.21A4.88,4.88,0,0,1,242.15,37a3.47,3.47,0,0,1-3.25-3.6,5.57,5.57,0,0,1,1.55-3c1.17-1.38,1.92-2.29,2.25-2.74a15.87,15.87,0,0,0,1-1.48,1.63,1.63,0,0,0-1-.73,1.73,1.73,0,0,0-1.21.51,3.21,3.21,0,0,0-1.15,1.38,2.06,2.06,0,0,0,.11,1.31m4.77-.6c-.37.59-.77,1.18-1.21,1.75a4.79,4.79,0,0,0-1,1.73,1.18,1.18,0,0,0,.23.93,1.16,1.16,0,0,0,.88.48,1.69,1.69,0,0,0,1.12-.43,3,3,0,0,0,.91-1.22,2.41,2.41,0,0,0,.19-1.34,3.09,3.09,0,0,0-.68-1.3Z"></path><path class="cls-9" d="M138.87,33.35a2.79,2.79,0,1,0-2.79,2.79,2.79,2.79,0,0,0,2.79-2.79"></path></g></g></svg>