<svg xmlns="http://www.w3.org/2000/svg" id="INSTITUCIONAL" viewBox="0 0 253.43 141.18"><defs><style>.cls-1{fill:#00aae6;}.cls-2,.cls-4{fill:#fff;}.cls-2,.cls-3{stroke:#fff;stroke-miterlimit:10;stroke-width:3px;}.cls-3{fill:none;}.cls-4{font-size:63.82px;font-family:Gotham-Bold, Gotham;font-weight:700;letter-spacing:-0.03em;}</style></defs><path class="cls-1" d="M74.14,21.08h143a26.74,26.74,0,0,1,26.74,26.74v47a26.74,26.74,0,0,1-26.74,26.74h-143a2.69,2.69,0,0,1-2.69-2.69V23.77A2.69,2.69,0,0,1,74.14,21.08Z"/><circle class="cls-1" cx="61.97" cy="71.98" r="51.78"/><circle class="cls-2" cx="61.97" cy="71.98" r="42.17"/><path class="cls-1" d="M37.51,51.14V81.87L58.61,103l66.45-69.33a3.52,3.52,0,0,0-2.54-5.95h-17.6a11.52,11.52,0,0,0-8.29,3.53L59.39,69.89Z"/><path class="cls-3" d="M37.51,51.14V81.87L58.61,103l66.45-69.33a3.52,3.52,0,0,0-2.54-5.95h-17.6a11.52,11.52,0,0,0-8.29,3.53L59.39,69.89Z"/><text class="cls-4" transform="translate(118.8 91.33)">ISO</text></svg>