<svg xmlns="http://www.w3.org/2000/svg" viewBox="0 0 204.87 283.37"><defs><style>.cls-1{fill:#006ba2;}.cls-2{fill:#00aae6;}</style></defs><g id="Capa_2" data-name="Capa 2"><g id="Capa_1-2" data-name="Capa 1"><path class="cls-1" d="M101.88,226.8a32.92,32.92,0,0,0,32.89-32.87v-5.78H116.41V172.31h18.36v-13H116.41V143.51h18.36V137.8a32.91,32.91,0,0,0-65.82,0v5.73h18v15.84H69v13h18v15.84H69V194A32.94,32.94,0,0,0,101.88,226.8Zm64.62-33.14H153.57a51.72,51.72,0,0,1-103.3,0h-13a64.78,64.78,0,0,0,51.42,60.45v15.2H58.9v14.09h85.84V269.28H115.06V254.06a64.73,64.73,0,0,0,51.39-60.4Z"></path><path class="cls-2" d="M101.55,0A136.33,136.33,0,0,0,0,45.19L13.76,59a116.95,116.95,0,0,1,177.5,2.56l13.61-14.4A136.38,136.38,0,0,0,101.55,0Z"></path><path class="cls-2" d="M102,35.93a100.73,100.73,0,0,0-76.4,35L35.83,81.25a85.93,85.93,0,0,1,133.58,3.52L180.32,73.2A100.83,100.83,0,0,0,102,35.93Z"></path><path class="cls-2" d="M101.55,66.49A70.09,70.09,0,0,0,47,92.5l10.61,10.7a55.6,55.6,0,0,1,91.11,3.5L158.85,96A70.11,70.11,0,0,0,101.55,66.49Z"></path></g></g></svg>