<svg xmlns="http://www.w3.org/2000/svg" viewBox="0 0 282.67 284.54"><defs><style>.cls-1{fill:#00aae6;}.cls-2{fill:#006ba2;}</style></defs><g id="Capa_2" data-name="Capa 2"><g id="Capa_1-2" data-name="Capa 1"><path class="cls-1" d="M119.66,0A119.69,119.69,0,0,0,16.59,180.49L.44,238.89l58.4-16.16A119.67,119.67,0,1,0,119.66,0Zm11.21,182.25a1.19,1.19,0,0,1-1.19,1.19H109.29a1.18,1.18,0,0,1-1.18-1.19V161.86a1.18,1.18,0,0,1,1.18-1.19h20.39a1.19,1.19,0,0,1,1.19,1.19Zm16.94-64-16.94,15.51v15.38a1.18,1.18,0,0,1-1.19,1.18H109.29a1.18,1.18,0,0,1-1.18-1.18V124.21a1.16,1.16,0,0,1,.38-.88l24-21.92a19.2,19.2,0,0,0-13-33.38,19.23,19.23,0,0,0-19.21,19.2,1.18,1.18,0,0,1-1.18,1.19H78.7a1.18,1.18,0,0,1-1.18-1.19,42,42,0,1,1,70.29,31Z"></path><path class="cls-2" d="M282.67,209.52a75.22,75.22,0,0,0-37.51-64.94A125.2,125.2,0,0,1,141.94,245.64a75,75,0,0,0,103.89,28.47l36.52,10.11L272.24,247.7A74.7,74.7,0,0,0,282.67,209.52Z"></path></g></g></svg>