<svg xmlns="http://www.w3.org/2000/svg" viewBox="0 0 279.99 279.99"><defs><style>.cls-1{fill:#00aae6;}.cls-2{fill:#006ba2;}</style></defs><g id="Capa_2" data-name="Capa 2"><g id="Capa_1-2" data-name="Capa 1"><path class="cls-1" d="M255.38,0H24.61A24.64,24.64,0,0,0,0,24.61V189.76a24.64,24.64,0,0,0,24.61,24.61H255.38A24.64,24.64,0,0,0,280,189.76V24.61A24.64,24.64,0,0,0,255.38,0Zm8.21,189.76a8.21,8.21,0,0,1-8.21,8.2H24.61a8.2,8.2,0,0,1-8.2-8.2V24.61a8.2,8.2,0,0,1,8.2-8.2H255.38a8.21,8.21,0,0,1,8.21,8.2Z"></path><path class="cls-1" d="M207.58,160V36l-4.73.4a181.65,181.65,0,0,0-55.14,13.44l-8.33,3.45V176.79l6.07-2.52a189.3,189.3,0,0,1,57-13.87Z"></path><path class="cls-1" d="M69.72,36.42,65,36V160l5.5.46a188.09,188.09,0,0,1,57,13.95l5.72,2.38V53.31l-8.32-3.45A181.72,181.72,0,0,0,69.72,36.42Z"></path><path class="cls-1" d="M213.82,271.79a8.2,8.2,0,0,1-8.2,8.2H74.37a8.2,8.2,0,0,1-8.2-8.2h0v-8.2a16.4,16.4,0,0,1,16.41-16.41H197.42a16.4,16.4,0,0,1,16.4,16.41v8.2Z"></path><rect class="cls-2" x="98.98" y="214.37" width="82.03" height="32.81"></rect></g></g></svg>